<?xml version="1.0" encoding="UTF-8" ?>
<svg xmlns="http://www.w3.org/2000/svg" width="80" height="100">
<rect x="0" y="0" width="20" height="20" fill="white" />
<text x="10" y="15" fill="black" font-size="12" text-anchor="middle">'</text>
<rect x="20" y="0" width="20" height="20" fill="white" />
<text x="30" y="15" fill="black" font-size="12" text-anchor="middle">Z</text>
<rect x="40" y="0" width="20" height="20" fill="white" />
<text x="50" y="15" fill="black" font-size="12" text-anchor="middle">?</text>
<rect x="60" y="0" width="20" height="20" fill="white" />
<text x="70" y="15" fill="black" font-size="12" text-anchor="middle">[</text>
<rect x="0" y="20" width="20" height="20" fill="white" />
<text x="10" y="35" fill="black" font-size="12" text-anchor="middle">></text>
<rect x="20" y="20" width="20" height="20" fill="white" />
<text x="30" y="35" fill="black" font-size="12" text-anchor="middle">Q</text>
<rect x="40" y="20" width="20" height="20" fill="white" />
<text x="50" y="35" fill="black" font-size="12" text-anchor="middle">!</text>
<rect x="60" y="20" width="20" height="20" fill="white" />
<text x="70" y="35" fill="black" font-size="12" text-anchor="middle">+</text>
<rect x="0" y="40" width="20" height="20" fill="white" />
<text x="10" y="55" fill="black" font-size="12" text-anchor="middle">Z</text>
<rect x="20" y="40" width="20" height="20" fill="white" />
<text x="30" y="55" fill="black" font-size="12" text-anchor="middle">A</text>
<rect x="40" y="40" width="20" height="20" fill="white" />
<text x="50" y="55" fill="black" font-size="12" text-anchor="middle">U</text>
<rect x="60" y="40" width="20" height="20" fill="white" />
<text x="70" y="55" fill="black" font-size="12" text-anchor="middle">R</text>
<rect x="0" y="60" width="20" height="20" fill="white" />
<text x="10" y="75" fill="black" font-size="12" text-anchor="middle">T</text>
<rect x="20" y="60" width="20" height="20" fill="white" />
<text x="30" y="75" fill="black" font-size="12" text-anchor="middle">#</text>
<rect x="40" y="60" width="20" height="20" fill="white" />
<text x="50" y="75" fill="black" font-size="12" text-anchor="middle">@</text>
<rect x="60" y="60" width="20" height="20" fill="white" />
<text x="70" y="75" fill="black" font-size="12" text-anchor="middle">^</text>
<rect x="0" y="80" width="20" height="20" fill="white" />
<text x="10" y="95" fill="black" font-size="12" text-anchor="middle">D</text>
<rect x="20" y="80" width="20" height="20" fill="white" />
<text x="30" y="95" fill="black" font-size="12" text-anchor="middle">;</text>
<rect x="40" y="80" width="20" height="20" fill="white" />
<text x="50" y="95" fill="black" font-size="12" text-anchor="middle">%</text>
<rect x="60" y="80" width="20" height="20" fill="white" />
<text x="70" y="95" fill="black" font-size="12" text-anchor="middle">@</text>
</svg>
